<svg width="48" height="48" viewBox="0 0 48 48" fill="none" xmlns="http://www.w3.org/2000/svg">
<rect width="48" height="48" rx="24" fill="white" style="fill:white;fill-opacity:1;"/>
<path d="M17.3396 28.4692C17.3396 29.7292 18.375 30.7646 19.635 30.7646C20.895 30.7646 21.9304 29.7292 21.9304 28.4692V26.3994H26.0701V28.4692C26.0701 29.7292 27.1055 30.7646 28.3655 30.7646C29.6255 30.7646 30.6609 29.7292 30.6609 28.4692V26.3994H34.8005V28.4692C34.8005 32.0092 31.9055 34.9043 28.3655 34.9043C26.6771 34.9043 25.1421 34.2535 23.9944 33.1904C22.8458 34.2523 21.3135 34.9043 19.635 34.9043C16.08 34.9043 13.2 32.0242 13.2 28.4692V26.3994H17.3396V28.4692Z" fill="#212524" style="fill:#212524;fill:color(display-p3 0.1291 0.1467 0.1407);fill-opacity:1;"/>
<path d="M17.7912 22.29C19.5972 22.29 21.0612 20.826 21.0612 19.02C21.0612 17.214 19.5972 15.75 17.7912 15.75C15.9853 15.75 14.5212 17.214 14.5212 19.02C14.5212 20.826 15.9853 22.29 17.7912 22.29Z" fill="#212524" style="fill:#212524;fill:color(display-p3 0.1291 0.1467 0.1407);fill-opacity:1;"/>
<path d="M30.1955 22.29C32.0015 22.29 33.4655 20.826 33.4655 19.02C33.4655 17.214 32.0015 15.75 30.1955 15.75C28.3896 15.75 26.9255 17.214 26.9255 19.02C26.9255 20.826 28.3896 22.29 30.1955 22.29Z" fill="#212524" style="fill:#212524;fill:color(display-p3 0.1291 0.1467 0.1407);fill-opacity:1;"/>
</svg>
