<svg width="64" height="64" viewBox="0 0 64 64" fill="none" xmlns="http://www.w3.org/2000/svg">
<path d="M14.76 56.599V45.129H12V57.359C12 58.4636 12.8954 59.359 14 59.359H19.37V56.599H14.76Z" fill="#33BC8D" style="fill:#33BC8D;fill:color(display-p3 0.2000 0.7373 0.5529);fill-opacity:1;"/>
<path d="M36.5702 47.39V44.63H31.2002C30.0956 44.63 29.2002 45.5254 29.2002 46.63V57.36C29.2002 58.4646 30.0956 59.36 31.2002 59.36H36.5702V56.6H31.9702V53.38H36.5702V50.62H31.9702V47.39H36.5702Z" fill="#33BC8D" style="fill:#33BC8D;fill:color(display-p3 0.2000 0.7373 0.5529);fill-opacity:1;"/>
<path d="M48.9102 44.63C47.8056 44.63 46.9102 45.5254 46.9102 46.63V57.36C46.9102 58.4646 47.8056 59.36 48.9102 59.36H52.2702C53.3747 59.36 54.2702 58.4646 54.2702 57.36V46.63C54.2702 45.5254 53.3747 44.63 52.2702 44.63H48.9102ZM51.5102 56.6H49.6702V47.39H51.5102V56.6Z" fill="#33BC8D" style="fill:#33BC8D;fill:color(display-p3 0.2000 0.7373 0.5529);fill-opacity:1;"/>
<path d="M22.79 37.31L21.72 34.76L23.99 33.81C22.21 31.7 21.21 29.03 21.21 26.21V15.79C21.21 9.29 26.5 4 33 4H43.41C44.17 4 44.79 4.62 44.79 5.38V26.2C44.79 29.02 43.8 31.69 42.01 33.8L44.28 34.75L43.21 37.3L39.03 35.55C38.58 35.36 38.26 34.95 38.2 34.47C38.13 33.99 38.32 33.51 38.7 33.2C40.83 31.45 42.02 28.91 42.02 26.2V6.77H32.99C28.01 6.77 23.96 10.82 23.96 15.8V26.21C23.96 28.94 25.17 31.49 27.29 33.21C27.67 33.52 27.85 34 27.78 34.48C27.71 34.96 27.39 35.37 26.95 35.56L22.79 37.31Z" fill="#33BC8D" style="fill:#33BC8D;fill:color(display-p3 0.2000 0.7373 0.5529);fill-opacity:1;"/>
<path d="M28.5693 24.21C28.5693 25.05 29.2596 25.7402 30.0996 25.7402C30.9396 25.7402 31.6299 25.0499 31.6299 24.21V22.8301H34.3896V24.21C34.3896 25.05 35.0799 25.7402 35.9199 25.7402C36.7599 25.7402 37.4502 25.0499 37.4502 24.21V22.8301H40.21V24.21C40.21 26.5699 38.2799 28.5 35.9199 28.5C34.7943 28.5 33.771 28.0661 33.0059 27.3574C32.2401 28.0653 31.2186 28.5 30.0996 28.5C27.7296 28.5 25.8096 26.58 25.8096 24.21V22.8301H28.5693V24.21Z" fill="#33BC8D" style="fill:#33BC8D;fill:color(display-p3 0.2000 0.7373 0.5529);fill-opacity:1;"/>
<path d="M28.8704 20.0905C30.0744 20.0905 31.0504 19.1144 31.0504 17.9105C31.0504 16.7065 30.0744 15.7305 28.8704 15.7305C27.6664 15.7305 26.6904 16.7065 26.6904 17.9105C26.6904 19.1144 27.6664 20.0905 28.8704 20.0905Z" fill="#33BC8D" style="fill:#33BC8D;fill:color(display-p3 0.2000 0.7373 0.5529);fill-opacity:1;"/>
<path d="M37.14 20.0905C38.3439 20.0905 39.32 19.1144 39.32 17.9105C39.32 16.7065 38.3439 15.7305 37.14 15.7305C35.936 15.7305 34.96 16.7065 34.96 17.9105C34.96 19.1144 35.936 20.0905 37.14 20.0905Z" fill="#33BC8D" style="fill:#33BC8D;fill:color(display-p3 0.2000 0.7373 0.5529);fill-opacity:1;"/>
</svg>
